M48
;GenerationSoftware,Autodesk,EAGLE,9.2.2*%
;CreationDate,2018-11-04T04:34:58Z*%
FMAT,2
ICI,OFF
METRIC,TZ,000.000
T3C0.350
T2C0.600
T1C3.000
%
G90
M71
T1
X2540Y31750
X2540Y2540
X53340Y2540
X53340Y31750
T2
X45221Y29945
X45221Y9495
T3
X44323Y8890
X15240Y10160
X22860Y24130
X34290Y26670
X43942Y23495
X36830Y17780
X38100Y11938
X33274Y19939
X30480Y10160
X26035Y11303
X27305Y16510
X29845Y16510
X26670Y24130
X24638Y24892
X26035Y21971
M30