G04 EAGLE Gerber RS-274X export*
G75*
%MOMM*%
%FSLAX34Y34*%
%LPD*%
%INTop Copper*%
%IPPOS*%
%AMOC8*
5,1,8,0,0,1.08239X$1,22.5*%
G01*
%ADD10R,0.660400X2.032000*%
%ADD11R,1.500000X1.300000*%
%ADD12R,1.300000X1.500000*%
%ADD13R,1.270000X0.558800*%
%ADD14R,0.558800X1.320800*%
%ADD15R,1.300000X0.300000*%
%ADD16R,2.200000X1.800000*%
%ADD17C,0.152400*%
%ADD18C,0.756400*%


D10*
X311150Y195834D03*
X311150Y134366D03*
X298450Y195834D03*
X285750Y195834D03*
X298450Y134366D03*
X285750Y134366D03*
X273050Y195834D03*
X273050Y134366D03*
X260350Y195834D03*
X260350Y134366D03*
X247650Y195834D03*
X234950Y195834D03*
X247650Y134366D03*
X234950Y134366D03*
X222250Y195834D03*
X222250Y134366D03*
D11*
X304800Y231800D03*
X304800Y250800D03*
D12*
X250800Y292100D03*
X231800Y292100D03*
D13*
X457708Y174625D03*
X457708Y165100D03*
X457708Y155575D03*
X482092Y155575D03*
X482092Y174625D03*
D12*
X396900Y88900D03*
X415900Y88900D03*
X396900Y139700D03*
X415900Y139700D03*
X396900Y190500D03*
X415900Y190500D03*
X396900Y254000D03*
X415900Y254000D03*
D14*
X295275Y295348D03*
X314325Y295348D03*
X304800Y313273D03*
D15*
X134100Y187600D03*
X134100Y182600D03*
X134100Y177600D03*
X134100Y172600D03*
X134100Y167600D03*
X134100Y162600D03*
X134100Y157600D03*
X134100Y152600D03*
X134100Y147600D03*
X134100Y142600D03*
D16*
X101600Y123600D03*
X101600Y206600D03*
D17*
X415900Y139700D02*
X441300Y165100D01*
X457708Y165100D01*
X417500Y188900D02*
X415900Y190500D01*
X417500Y188900D02*
X441300Y165100D01*
X417500Y252400D02*
X415900Y254000D01*
X417500Y252400D02*
X417500Y188900D01*
D18*
X443230Y88900D03*
D17*
X415900Y88900D01*
X149700Y101600D02*
X134100Y117200D01*
X134100Y142600D01*
X149700Y101600D02*
X152400Y101600D01*
D18*
X152400Y101600D03*
X228600Y241300D03*
D17*
X222250Y234950D01*
X222250Y195834D01*
D18*
X342900Y266700D03*
D17*
X314325Y295275D01*
X314325Y295348D01*
X415900Y254000D02*
X434950Y234950D01*
D18*
X439420Y234950D03*
D17*
X434950Y234950D01*
X409600Y266700D02*
X396900Y254000D01*
X431800Y266700D02*
X482092Y216408D01*
X482092Y174625D01*
X431800Y266700D02*
X409600Y266700D01*
X396900Y254000D02*
X396900Y190500D01*
X348742Y158242D02*
X311150Y195834D01*
X348742Y158242D02*
X367284Y139700D01*
X396900Y139700D01*
D18*
X368300Y177800D03*
D17*
X381000Y190500D02*
X396900Y190500D01*
X381000Y190500D02*
X368300Y177800D01*
D18*
X381000Y119380D03*
D17*
X381000Y123800D02*
X396900Y139700D01*
X381000Y123800D02*
X381000Y119380D01*
X348742Y158242D02*
X368300Y177800D01*
X144500Y147600D02*
X134100Y147600D01*
X144500Y147600D02*
X203200Y88900D01*
X396900Y88900D01*
X457708Y149708D01*
X457708Y155575D01*
X457708Y174625D02*
X465455Y174625D01*
X469900Y170180D01*
X465455Y155575D02*
X457708Y155575D01*
X465455Y155575D02*
X469900Y160020D01*
X469900Y170180D01*
D18*
X332740Y199390D03*
D17*
X332740Y203860D01*
X304800Y231800D01*
X304800Y250800D02*
X304800Y313273D01*
X295275Y295348D02*
X292027Y292100D01*
X250800Y292100D01*
X298450Y134366D02*
X298450Y107950D01*
X304800Y101600D01*
D18*
X304800Y101600D03*
X260350Y113030D03*
D17*
X260350Y134366D01*
D18*
X273050Y165100D03*
D17*
X273050Y195834D01*
X298450Y195834D02*
X298450Y165100D01*
D18*
X298450Y165100D03*
X266700Y241300D03*
D17*
X247650Y222250D01*
X247650Y195834D01*
X231800Y292100D02*
X134100Y194400D01*
X134100Y187600D01*
X285750Y195834D02*
X285750Y247650D01*
X266700Y266700D01*
X228600Y266700D01*
X165100Y203200D01*
X165100Y190500D01*
X152200Y177600D02*
X134100Y177600D01*
X152200Y177600D02*
X165100Y190500D01*
X135314Y173814D02*
X134100Y172600D01*
X168148Y201937D02*
X220211Y254000D01*
X241300Y254000D01*
X168148Y201937D02*
X168148Y189237D01*
X152725Y173814D02*
X135314Y173814D01*
X152725Y173814D02*
X168148Y189237D01*
X241300Y254000D02*
X246380Y248920D01*
D18*
X246380Y248920D03*
X260350Y219710D03*
D17*
X260350Y195834D01*
X223480Y167600D02*
X134100Y167600D01*
X223480Y167600D02*
X234950Y179070D01*
X234950Y195834D01*
X155132Y162600D02*
X134100Y162600D01*
X183366Y134366D02*
X222250Y134366D01*
X183366Y134366D02*
X155132Y162600D01*
X135314Y156386D02*
X134100Y157600D01*
X195311Y114300D02*
X241300Y114300D01*
X153225Y156386D02*
X135314Y156386D01*
X153225Y156386D02*
X195311Y114300D01*
X241300Y114300D02*
X247650Y120650D01*
X247650Y134366D01*
X135314Y151386D02*
X134100Y152600D01*
X198621Y101600D02*
X266700Y101600D01*
X148835Y151386D02*
X135314Y151386D01*
X148835Y151386D02*
X198621Y101600D01*
X266700Y101600D02*
X285750Y120650D01*
X285750Y134366D01*
M02*
