G04 EAGLE Gerber RS-274X export*
G75*
%MOMM*%
%FSLAX34Y34*%
%LPD*%
%INBottom Copper*%
%IPPOS*%
%AMOC8*
5,1,8,0,0,1.08239X$1,22.5*%
G01*
%ADD10R,2.000000X0.500000*%
%ADD11C,0.756400*%
%ADD12C,0.152400*%


D10*
X414210Y215450D03*
X414210Y207450D03*
X414210Y199450D03*
X414210Y191450D03*
X414210Y183450D03*
X414210Y175450D03*
X414210Y167450D03*
X414210Y159450D03*
X414210Y151450D03*
X414210Y143450D03*
X414210Y135450D03*
X414210Y127450D03*
X414210Y119450D03*
X414210Y223450D03*
D11*
X443230Y88900D03*
D12*
X443230Y127000D01*
X414660Y127000D01*
X414210Y127450D01*
X443230Y127000D02*
X443230Y151130D01*
X414530Y151130D01*
X414210Y151450D01*
X414210Y215450D02*
X436060Y215450D01*
X443230Y208280D01*
X443230Y151130D01*
D11*
X152400Y101600D03*
D12*
X228600Y177800D01*
X228600Y241300D01*
D11*
X228600Y241300D03*
D12*
X254000Y266700D01*
X342900Y266700D01*
D11*
X342900Y266700D03*
X439420Y234950D03*
D12*
X443230Y231140D01*
X443230Y208280D01*
X375660Y266700D02*
X342900Y266700D01*
X414210Y220417D02*
X414624Y220003D01*
X414210Y220417D02*
X414210Y215450D01*
X414624Y227736D02*
X375660Y266700D01*
X414624Y227736D02*
X414624Y220003D01*
X414210Y191450D02*
X381950Y191450D01*
X368300Y177800D01*
D11*
X368300Y177800D03*
D12*
X414210Y191450D02*
X414210Y199450D01*
X414210Y143450D02*
X405070Y143450D01*
X381000Y119380D01*
D11*
X381000Y119380D03*
D12*
X413580Y135450D02*
X414210Y135450D01*
X413580Y135450D02*
X367030Y88900D01*
X266700Y88900D01*
X228600Y127000D01*
X228600Y139700D01*
X288290Y199390D01*
X332740Y199390D01*
D11*
X332740Y199390D03*
X304800Y101600D03*
D12*
X313182Y109982D01*
X355593Y109982D01*
X404361Y158750D01*
X413510Y158750D02*
X414210Y159450D01*
X413510Y158750D02*
X404361Y158750D01*
D11*
X260350Y113030D03*
D12*
X354330Y113030D01*
X408750Y167450D02*
X414210Y167450D01*
X408750Y167450D02*
X354330Y113030D01*
X404050Y175450D02*
X414210Y175450D01*
X404050Y175450D02*
X355600Y127000D01*
X311150Y127000D01*
X273050Y165100D01*
D11*
X273050Y165100D03*
X298450Y165100D03*
D12*
X399350Y183450D02*
X414210Y183450D01*
X399350Y183450D02*
X381000Y165100D01*
X298450Y165100D01*
X402150Y207450D02*
X414210Y207450D01*
X402150Y207450D02*
X368300Y241300D01*
X266700Y241300D01*
D11*
X266700Y241300D03*
X246380Y248920D03*
D12*
X246380Y233680D01*
X260350Y219710D01*
D11*
X260350Y219710D03*
M02*
