G04 EAGLE Gerber RS-274X export*
G75*
%MOMM*%
%FSLAX34Y34*%
%LPD*%
%INSoldermask Top*%
%IPPOS*%
%AMOC8*
5,1,8,0,0,1.08239X$1,22.5*%
G01*
%ADD10C,3.203194*%
%ADD11R,0.863600X2.235200*%
%ADD12R,1.703200X1.503200*%
%ADD13R,1.503200X1.703200*%
%ADD14C,0.803200*%
%ADD15R,1.473200X0.762000*%
%ADD16R,0.762000X1.524000*%
%ADD17R,1.400000X0.400000*%
%ADD18R,2.350000X1.900000*%
%ADD19C,0.959600*%


D10*
X25400Y317500D03*
X25400Y25400D03*
X533400Y25400D03*
X533400Y317500D03*
D11*
X311150Y195834D03*
X311150Y134366D03*
X298450Y195834D03*
X285750Y195834D03*
X298450Y134366D03*
X285750Y134366D03*
X273050Y195834D03*
X273050Y134366D03*
X260350Y195834D03*
X260350Y134366D03*
X247650Y195834D03*
X234950Y195834D03*
X247650Y134366D03*
X234950Y134366D03*
X222250Y195834D03*
X222250Y134366D03*
D12*
X304800Y231800D03*
X304800Y250800D03*
D13*
X250800Y292100D03*
X231800Y292100D03*
D14*
X452210Y299450D03*
X452210Y94950D03*
D15*
X457708Y174625D03*
X457708Y165100D03*
X457708Y155575D03*
X482092Y155575D03*
X482092Y174625D03*
D13*
X396900Y88900D03*
X415900Y88900D03*
X396900Y139700D03*
X415900Y139700D03*
X396900Y190500D03*
X415900Y190500D03*
X396900Y254000D03*
X415900Y254000D03*
D16*
X295275Y295348D03*
X314325Y295348D03*
X304800Y313273D03*
D17*
X134100Y187600D03*
X134100Y182600D03*
X134100Y177600D03*
X134100Y172600D03*
X134100Y167600D03*
X134100Y162600D03*
X134100Y157600D03*
X134100Y152600D03*
X134100Y147600D03*
X134100Y142600D03*
D18*
X101600Y123600D03*
X101600Y206600D03*
D19*
X443230Y88900D03*
X152400Y101600D03*
X228600Y241300D03*
X342900Y266700D03*
X439420Y234950D03*
X368300Y177800D03*
X381000Y119380D03*
X332740Y199390D03*
X304800Y101600D03*
X260350Y113030D03*
X273050Y165100D03*
X298450Y165100D03*
X266700Y241300D03*
X246380Y248920D03*
X260350Y219710D03*
M02*
