G04 EAGLE Gerber RS-274X export*
G75*
%MOMM*%
%FSLAX34Y34*%
%LPD*%
%INSolderpaste Top*%
%IPPOS*%
%AMOC8*
5,1,8,0,0,1.08239X$1,22.5*%
G01*
%ADD10R,0.660400X2.032000*%
%ADD11R,1.500000X1.300000*%
%ADD12R,1.300000X1.500000*%
%ADD13R,1.270000X0.558800*%
%ADD14R,0.558800X1.320800*%
%ADD15R,1.250000X0.250000*%
%ADD16R,2.050000X1.650000*%


D10*
X311150Y195834D03*
X311150Y134366D03*
X298450Y195834D03*
X285750Y195834D03*
X298450Y134366D03*
X285750Y134366D03*
X273050Y195834D03*
X273050Y134366D03*
X260350Y195834D03*
X260350Y134366D03*
X247650Y195834D03*
X234950Y195834D03*
X247650Y134366D03*
X234950Y134366D03*
X222250Y195834D03*
X222250Y134366D03*
D11*
X304800Y231800D03*
X304800Y250800D03*
D12*
X250800Y292100D03*
X231800Y292100D03*
D13*
X457708Y174625D03*
X457708Y165100D03*
X457708Y155575D03*
X482092Y155575D03*
X482092Y174625D03*
D12*
X396900Y88900D03*
X415900Y88900D03*
X396900Y139700D03*
X415900Y139700D03*
X396900Y190500D03*
X415900Y190500D03*
X396900Y254000D03*
X415900Y254000D03*
D14*
X295275Y295348D03*
X314325Y295348D03*
X304800Y313273D03*
D15*
X134100Y187600D03*
X134100Y182600D03*
X134100Y177600D03*
X134100Y172600D03*
X134100Y167600D03*
X134100Y162600D03*
X134100Y157600D03*
X134100Y152600D03*
X134100Y147600D03*
X134100Y142600D03*
D16*
X101600Y123600D03*
X101600Y206600D03*
M02*
